{
	"patcher" : 	{
		"fileversion" : 1,
		"appversion" : 		{
			"major" : 9,
			"minor" : 0,
			"revision" : 0,
			"architecture" : "x64",
			"modernui" : 1
		}
,
		"classnamespace" : "box",
		"rect" : [ 496.0, 120.0, 886.0, 881.0 ],
		"bglocked" : 0,
		"openinpresentation" : 0,
		"default_fontsize" : 12.0,
		"default_fontface" : 0,
		"default_fontname" : "Arial",
		"gridonopen" : 1,
		"gridsize" : [ 15.0, 15.0 ],
		"gridsnaponopen" : 1,
		"objectsnaponopen" : 1,
		"statusbarvisible" : 2,
		"toolbarvisible" : 1,
		"lefttoolbarpinned" : 0,
		"toptoolbarpinned" : 0,
		"righttoolbarpinned" : 0,
		"bottomtoolbarpinned" : 0,
		"toolbars_unpinned_last_save" : 0,
		"tallnewobj" : 0,
		"boxanimatetime" : 200,
		"enablehscroll" : 1,
		"enablevscroll" : 1,
		"devicewidth" : 0.0,
		"description" : "",
		"digest" : "",
		"tags" : "",
		"style" : "",
		"subpatcher_template" : "",
		"assistshowspatchername" : 0,
		"boxes" : [ 			{
				"box" : 				{
					"id" : "obj-1",
					"maxclass" : "newobj",
					"numinlets" : 1,
					"numoutlets" : 1,
					"outlettype" : [ "" ],
					"patching_rect" : [ 296.0, 159.0, 70.0, 22.0 ],
					"text" : "loadmess 1"
				}

			}
, 			{
				"box" : 				{
					"id" : "obj-100",
					"maxclass" : "toggle",
					"numinlets" : 1,
					"numoutlets" : 1,
					"outlettype" : [ "int" ],
					"parameter_enable" : 0,
					"patching_rect" : [ 361.0, 213.0, 24.0, 24.0 ],
					"svg" : ""
				}

			}
, 			{
				"box" : 				{
					"id" : "obj-101",
					"maxclass" : "toggle",
					"numinlets" : 1,
					"numoutlets" : 1,
					"outlettype" : [ "int" ],
					"parameter_enable" : 0,
					"patching_rect" : [ 329.0, 213.0, 24.0, 24.0 ],
					"svg" : ""
				}

			}
, 			{
				"box" : 				{
					"id" : "obj-102",
					"maxclass" : "newobj",
					"numinlets" : 3,
					"numoutlets" : 1,
					"outlettype" : [ "" ],
					"patching_rect" : [ 296.0, 280.0, 81.0, 22.0 ],
					"text" : "pak invert 0 0"
				}

			}
, 			{
				"box" : 				{
					"id" : "obj-99",
					"maxclass" : "toggle",
					"numinlets" : 1,
					"numoutlets" : 1,
					"outlettype" : [ "int" ],
					"parameter_enable" : 0,
					"patching_rect" : [ 247.0, 213.0, 24.0, 24.0 ],
					"svg" : ""
				}

			}
, 			{
				"box" : 				{
					"id" : "obj-98",
					"maxclass" : "toggle",
					"numinlets" : 1,
					"numoutlets" : 1,
					"outlettype" : [ "int" ],
					"parameter_enable" : 0,
					"patching_rect" : [ 215.0, 213.0, 24.0, 24.0 ],
					"svg" : ""
				}

			}
, 			{
				"box" : 				{
					"id" : "obj-88",
					"maxclass" : "newobj",
					"numinlets" : 3,
					"numoutlets" : 1,
					"outlettype" : [ "" ],
					"patching_rect" : [ 182.0, 280.0, 75.0, 22.0 ],
					"text" : "pak map 0 0"
				}

			}
, 			{
				"box" : 				{
					"fontface" : 0,
					"fontname" : "Arial",
					"fontsize" : 12.0,
					"id" : "obj-86",
					"maxclass" : "jit.fpsgui",
					"mode" : 3,
					"numinlets" : 1,
					"numoutlets" : 2,
					"outlettype" : [ "", "" ],
					"patching_rect" : [ 159.0, 386.0, 80.0, 35.0 ]
				}

			}
, 			{
				"box" : 				{
					"id" : "obj-73",
					"maxclass" : "jit.pwindow",
					"numinlets" : 1,
					"numoutlets" : 2,
					"outlettype" : [ "jit_matrix", "" ],
					"patching_rect" : [ 128.0, 446.0, 383.0, 261.0 ],
					"sync" : 1
				}

			}
, 			{
				"box" : 				{
					"filename" : "jit.fx.dimmap.js",
					"id" : "obj-72",
					"maxclass" : "newobj",
					"numinlets" : 1,
					"numoutlets" : 1,
					"outlettype" : [ "" ],
					"patching_rect" : [ 128.0, 338.0, 104.0, 22.0 ],
					"saved_object_attributes" : 					{
						"parameter_enable" : 0
					}
,
					"text" : "v8 jit.fx.dimmap.js",
					"textfile" : 					{
						"filename" : "jit.fx.dimmap.js",
						"flags" : 0,
						"embed" : 0,
						"autowatch" : 1
					}

				}

			}
, 			{
				"box" : 				{
					"id" : "obj-10",
					"maxclass" : "newobj",
					"numinlets" : 1,
					"numoutlets" : 1,
					"outlettype" : [ "bang" ],
					"patching_rect" : [ 128.0, 70.0, 58.0, 22.0 ],
					"text" : "loadbang"
				}

			}
, 			{
				"box" : 				{
					"id" : "obj-9",
					"maxclass" : "message",
					"numinlets" : 2,
					"numoutlets" : 1,
					"outlettype" : [ "" ],
					"patching_rect" : [ 128.0, 114.0, 183.0, 22.0 ],
					"text" : "output_texture 1, loop 1, vol 0., 1"
				}

			}
, 			{
				"box" : 				{
					"data" : 					{
						"clips" : [ 							{
								"absolutepath" : "chickens.mp4",
								"filename" : "chickens.mp4",
								"filekind" : "moviefile",
								"id" : "u070005254",
								"loop" : 1,
								"content_state" : 								{
									"loop" : 1,
									"vol" : 0.0
								}

							}
 ]
					}
,
					"drawto" : "",
					"id" : "obj-7",
					"loop" : 1,
					"maxclass" : "jit.playlist",
					"numinlets" : 1,
					"numoutlets" : 3,
					"outlettype" : [ "jit_gl_texture", "", "dictionary" ],
					"output_texture" : 1,
					"parameter_enable" : 0,
					"patching_rect" : [ 128.0, 159.0, 150.0, 30.0 ],
					"saved_attribute_attributes" : 					{
						"candicane2" : 						{
							"expression" : ""
						}
,
						"candicane3" : 						{
							"expression" : ""
						}
,
						"candicane4" : 						{
							"expression" : ""
						}
,
						"candicane5" : 						{
							"expression" : ""
						}
,
						"candicane6" : 						{
							"expression" : ""
						}
,
						"candicane7" : 						{
							"expression" : ""
						}
,
						"candicane8" : 						{
							"expression" : ""
						}

					}

				}

			}
, 			{
				"box" : 				{
					"id" : "obj-5",
					"maxclass" : "newobj",
					"numinlets" : 1,
					"numoutlets" : 3,
					"outlettype" : [ "jit_matrix", "bang", "" ],
					"patching_rect" : [ 128.0, 32.0, 111.0, 22.0 ],
					"text" : "jit.world @enable 1"
				}

			}
 ],
		"lines" : [ 			{
				"patchline" : 				{
					"destination" : [ "obj-99", 0 ],
					"source" : [ "obj-1", 0 ]
				}

			}
, 			{
				"patchline" : 				{
					"destination" : [ "obj-9", 0 ],
					"source" : [ "obj-10", 0 ]
				}

			}
, 			{
				"patchline" : 				{
					"destination" : [ "obj-102", 2 ],
					"source" : [ "obj-100", 0 ]
				}

			}
, 			{
				"patchline" : 				{
					"destination" : [ "obj-102", 1 ],
					"source" : [ "obj-101", 0 ]
				}

			}
, 			{
				"patchline" : 				{
					"destination" : [ "obj-72", 0 ],
					"source" : [ "obj-102", 0 ]
				}

			}
, 			{
				"patchline" : 				{
					"destination" : [ "obj-72", 0 ],
					"source" : [ "obj-7", 0 ]
				}

			}
, 			{
				"patchline" : 				{
					"destination" : [ "obj-73", 0 ],
					"order" : 1,
					"source" : [ "obj-72", 0 ]
				}

			}
, 			{
				"patchline" : 				{
					"destination" : [ "obj-86", 0 ],
					"order" : 0,
					"source" : [ "obj-72", 0 ]
				}

			}
, 			{
				"patchline" : 				{
					"destination" : [ "obj-72", 0 ],
					"source" : [ "obj-88", 0 ]
				}

			}
, 			{
				"patchline" : 				{
					"destination" : [ "obj-7", 0 ],
					"source" : [ "obj-9", 0 ]
				}

			}
, 			{
				"patchline" : 				{
					"destination" : [ "obj-88", 1 ],
					"source" : [ "obj-98", 0 ]
				}

			}
, 			{
				"patchline" : 				{
					"destination" : [ "obj-88", 2 ],
					"source" : [ "obj-99", 0 ]
				}

			}
 ],
		"originid" : "pat-79",
		"dependency_cache" : [ 			{
				"name" : "chickens.mp4",
				"bootpath" : "C74:/media/jitter",
				"type" : "mpg4",
				"implicit" : 1
			}
, 			{
				"name" : "jit.fx.dimmap.js",
				"bootpath" : "~/Documents/GitHub/jit.fx/jit.fx.dimmap",
				"patcherrelativepath" : ".",
				"type" : "TEXT",
				"implicit" : 1
			}
 ],
		"autosave" : 0
	}

}
